<?xml version="1.0" encoding="utf-8"?>
<!-- Generator: Adobe Illustrator 16.0.0, SVG Export Plug-In . SVG Version: 6.00 Build 0)  -->
<!DOCTYPE svg PUBLIC "-//W3C//DTD SVG 1.1//EN" "http://www.w3.org/Graphics/SVG/1.1/DTD/svg11.dtd">
<svg version="1.1" id="Layer_1" xmlns="http://www.w3.org/2000/svg" xmlns:xlink="http://www.w3.org/1999/xlink" x="0px" y="0px"
	 width="250.773px" height="31.83px" viewBox="0 0 250.773 31.83" enable-background="new 0 0 250.773 31.83" xml:space="preserve">
<g>
	<path fill="#FFFFFF" d="M147.565,24.721h0.011c0.02,0,0.04,0,0.06,0h6.734c0.383-0.022,0.828-0.079,1.189-0.322l0.004-0.003
		l0.001,0c0.249-0.169,0.444-0.414,0.598-0.748c0.063-0.138,0.122-0.294,0.172-0.465l4.592-15.261h-9.129l-2.929,9.767l-0.032,0.108
		l-0.079-0.04c-0.006-0.001-0.011-0.004-0.018-0.008l-0.004-0.002l0-0.001c-0.038-0.031-0.092-0.129-0.24-0.397l-0.528-0.956
		c-0.439-0.793-1.027-1.858-1.625-2.942c-1.589-2.88-2.464-4.478-2.602-4.749c-0.313-0.619-0.62-0.779-1.49-0.779h-8.138
		l-5.047,16.8h9.128l2.93-9.766l0.064-0.215l0.109,0.197l4.938,8.979c0.101,0.182,0.229,0.337,0.381,0.463
		c0.244,0.198,0.551,0.316,0.888,0.339l0.017,0.001l0.013,0.001l0.009,0.095l0.002-0.094L147.565,24.721z"/>
	<path fill="#FFFFFF" d="M93.83,21.967c-0.572,0-0.976-0.152-1.197-0.45c-0.228-0.307-0.259-0.748-0.089-1.312l0.272-0.908
		l0.911-3.034l2.486-8.285h-9.129l-0.938,3.111l-2.78,9.229c-0.079,0.264-0.139,0.521-0.18,0.765
		c-0.007,0.043-0.014,0.086-0.02,0.127c-0.015,0.101-0.026,0.2-0.035,0.295c-0.087,1,0.126,1.788,0.634,2.342
		c0.565,0.618,1.483,0.931,2.727,0.931h14.685l0.035,0c0.503-0.004,0.843-0.113,1.042-0.331c0.035-0.037,0.065-0.079,0.09-0.123
		l0.004-0.008l0.005-0.007l0-0.001l0.002-0.003c0.006-0.011,0.012-0.023,0.019-0.036l1.105-2.302H93.83z"/>
	<path fill="#FFFFFF" d="M75.72,19.117l-0.202-0.165l0.26-0.002l0.28-0.002c0.571-0.018,1.309-0.109,1.843-0.227
		c0.128-0.028,0.243-0.058,0.34-0.087c1.878-0.563,3.026-1.193,3.963-2.174c0.445-0.466,0.86-1.027,1.348-1.818
		c0.356-0.58,0.812-2.21,0.956-2.79l0.008-0.029l0.003-0.014c0.078-0.318,0.117-0.621,0.117-0.902
		c0.001-2.497-3.061-3.032-5.629-3.042l-0.073,0h-18.89l-5.054,16.915h9.126l1.73-5.763l0.012-0.039l0.037-0.019l0.02-0.01h0.015
		h0.004c0.012-0.002,0.043-0.006,0.086-0.006c0.172,0,0.524,0.053,0.952,0.411l5.8,4.864c0.271,0.227,1.025,0.548,1.736,0.561
		c0.013,0,0.025,0,0.037,0c0.001,0,0.002,0,0.002,0h8.053l-6.464-5.32L75.72,19.117z M75.018,12.141
		c-0.01,0.12-0.036,0.245-0.076,0.373c-0.034,0.109-0.068,0.23-0.106,0.361c-0.216,0.753-0.513,1.787-1.253,2.434
		c-0.036,0.031-0.073,0.062-0.111,0.091c-0.181,0.141-0.401,0.261-0.653,0.357l-0.004,0.004l-0.017,0.004h0l-0.008,0.002
		c-0.992,0.37-2.451,0.37-3.739,0.37h-0.313h-0.052h-1.488h-0.36h-0.127l0.037-0.121l0.121-0.401l1.427-4.757l0.021-0.067h0.07
		h4.783c0.719,0,1.241,0.157,1.551,0.467c0.203,0.204,0.305,0.461,0.305,0.769C75.023,12.064,75.02,12.103,75.018,12.141z"/>
	<path fill="#FFFFFF" d="M55.148,19.018l2.03-6.685c0.31-1.017,0.199-1.993-0.32-2.824c-0.04-0.063-0.083-0.128-0.13-0.194
		c-0.672-0.935-1.62-1.45-2.667-1.45H37.837c-2.678,0-5.268,1.495-6.759,3.902c-0.383,0.619-0.684,1.283-0.893,1.973l-1.647,5.421
		l-0.383,1.263c-0.024,0.078-0.045,0.156-0.064,0.232c-0.069,0.284-0.105,0.567-0.109,0.842c-0.005,0.575,0.134,1.12,0.415,1.62
		c0.043,0.075,0.09,0.149,0.137,0.221l0.024,0.038l0.015,0.021l0.017,0.023l0.009,0.013l0.006,0.009
		c0.276,0.384,0.611,0.69,0.996,0.912c0.488,0.281,1.146,0.538,1.773,0.538h16.121c1.241,0,2.492-0.322,3.621-0.933
		C53.04,22.921,54.51,21.12,55.148,19.018z M47.904,13.258c-0.01,0.042-0.021,0.083-0.033,0.123l-1.866,5.607
		c-0.533,1.753-2.16,2.979-3.958,2.979h-2.946c-0.517,0-0.963-0.185-1.293-0.535c-0.028-0.029-0.057-0.061-0.084-0.094
		c-0.025-0.032-0.051-0.064-0.076-0.099c-0.003-0.005-0.006-0.01-0.009-0.014h-0.001l-0.014-0.021l-0.03-0.015v-0.03
		c-0.238-0.369-0.33-0.796-0.264-1.24c0.015-0.104,0.04-0.21,0.071-0.314l0.368-1.208l1.576-5.176
		c0.458-1.516,1.801-2.379,3.783-2.431h0.02l0.037-0.001c0.735-0.02,1.25-0.032,1.713-0.032c0.452,0,0.878,0.012,1.508,0.033
		c0.413,0.015,0.758,0.157,1.026,0.425C47.966,11.746,48.051,12.646,47.904,13.258z"/>
	<path fill="#FFFFFF" d="M126.606,7.922h-2.103h-0.6h-7.723c-0.107,0.008-0.222,0.02-0.335,0.033
		c-0.773,0.086-1.515,0.263-2.203,0.524c-0.753,0.305-1.438,0.708-2.034,1.2c-0.875,0.72-1.589,1.653-2.122,2.772l-5.911,12.27
		h9.117l2.273-4.716l0.025-0.054h0.06h4.859h0.126L120,20.072l-1.386,4.649l3.807,0h2.698h2.462l5.009-16.798H126.606z
		 M122.757,10.829l-0.932,3.122l-0.931,3.122l-0.021,0.067h-0.07h-4.309h-0.15l0.065-0.135l2.505-5.196
		c0.067-0.14,0.149-0.271,0.243-0.389l0.006-0.008c0.266-0.328,0.622-0.553,1.031-0.65c0.151-0.037,0.309-0.055,0.47-0.055h2.001
		h0.127L122.757,10.829z"/>
	<path fill="#FFFFFF" d="M14.343,17.55h-0.127l0.037-0.122l1.372-4.575c0.284-0.932,1.148-1.582,2.103-1.582h0.46h0.095v0.016h10.1
		c0.001,0,0.003,0,0.004,0c0.013,0,0.025,0,0.038,0c0.617-0.005,1.035-0.139,1.28-0.408c0.02-0.021,0.082-0.113,0.131-0.187
		c0.055-0.082,0.113-0.168,0.154-0.222c0.391-0.512,1.415-1.743,2.814-2.634h-6.19H11.545c-0.258,0-0.517,0.011-0.771,0.035
		C9.148,8.02,7.746,8.636,6.606,9.7c-0.635,0.593-1.177,1.319-1.611,2.16c-0.046,0.089-0.091,0.18-0.134,0.271
		c-0.171,0.363-0.324,0.757-0.451,1.17l-3.186,10.5L0,27.968h11.063l2.096-6.899l0.021-0.067h0.07h11.067h0.002
		c0.014,0,0.027,0,0.041,0c0.615-0.005,1.033-0.138,1.278-0.407c0.044-0.049,0.081-0.099,0.112-0.152
		c0.001-0.002,0.004-0.007,0.007-0.014c0.001-0.003,0.003-0.007,0.006-0.011l0.004-0.009c0.006-0.012,0.013-0.023,0.019-0.036
		l1.354-2.821H14.343z"/>
	<path fill="#FFFFFF" d="M208.129,12.59c0.303-0.064,0.635-0.33,0.832-0.637c0.179-0.28,0.263-0.681,0.085-0.843
		c-0.159-0.145-0.416-0.104-0.608,0.077c-0.381,0.358-0.497,0.866-0.448,1.243C208.016,12.574,208.068,12.603,208.129,12.59z"/>
	<path fill="#FFFFFF" d="M212.117,2.953c-19.564,0-35.422,5.8-35.422,12.956c0,7.157,15.858,12.957,35.422,12.957
		c19.565,0,35.422-5.8,35.422-12.957C247.54,8.753,231.682,2.953,212.117,2.953z M192.816,24.827
		c-2.219,0.016-4.175-1.443-4.399-3.964c-0.125-1.399,0.247-2.644,0.992-3.671c0.661-0.915,1.779-1.675,2.725-1.861
		c0.308-0.058,0.723-0.021,0.893,0.196c0.269,0.333,0.19,0.696-0.076,0.842c-0.724,0.391-1.592,1.062-2.021,1.976
		c-0.35,0.747-0.42,1.648,0.112,2.506c0.893,1.431,3.377,1.47,5.688-0.811c0.571-0.558,1.083-1.095,1.604-1.729
		c1.018-1.237,1.356-1.687,2.708-3.681c0.017-0.021,0.021-0.053,0.013-0.068c-0.009-0.025-0.029-0.031-0.067-0.035
		c-0.903,0.027-1.691,0.312-2.456,0.921c-0.221,0.17-0.537,0.146-0.677-0.079c-0.153-0.254-0.043-0.584,0.211-0.772
		c1.23-0.909,2.575-1.073,3.948-1.319c0,0,0.096,0.004,0.174-0.107c0.564-0.769,0.99-1.462,1.591-2.238
		c0.604-0.79,1.388-1.514,1.984-2.058c0.835-0.761,1.369-1.019,1.913-1.332c0.143-0.08-0.019-0.176-0.062-0.176
		c-3.034-0.606-6.19-1.39-9.205-0.204c-2.088,0.827-3.001,2.586-2.562,3.761c0.312,0.834,1.345,0.97,2.311,0.467
		c0.803-0.418,1.545-1.091,2.072-1.959c0.294-0.481,0.914-0.133,0.579,0.704c-0.881,2.203-2.568,3.949-4.619,4.023
		c-1.747,0.061-2.874-1.306-2.871-2.989c0.005-3.323,3.488-5.513,7.146-5.839c4.407-0.387,8.581,0.86,12.956,1.423
		c3.353,0.432,6.566,0.44,9.935-0.381c0.397-0.092,0.677,0.178,0.651,0.605c-0.034,0.618-0.482,1.212-1.593,1.855
		c-1.262,0.735-2.581,0.958-3.961,0.97c-3.334,0.029-6.44-1.351-9.653-2.094c0.004,0.15,0.04,0.328-0.077,0.422
		c-1.781,1.396-3.39,2.813-4.467,4.804c-0.037,0.044-0.017,0.09,0.046,0.084c0.936-0.053,1.778-0.079,2.65-0.153
		c0.154-0.014,0.159-0.053,0.145-0.172c-0.077-0.686,0.111-1.468,0.68-2.006c0.581-0.553,1.308-0.617,1.79-0.218
		c0.55,0.456,0.5,1.272,0.201,1.884c-0.306,0.622-0.81,0.954-1.294,1.114c0,0-0.101,0.023-0.086,0.122
		c0.019,0.158,0.678,0.545,0.735,0.649c0.054,0.099,0.026,0.252-0.073,0.369c-0.071,0.084-0.181,0.165-0.319,0.16
		c-0.113-0.001-0.183-0.043-0.327-0.127c-0.296-0.17-0.666-0.45-0.913-0.78c-0.084-0.112-0.127-0.113-0.336-0.102
		c-0.946,0.058-2.42,0.208-3.418,0.342c-0.242,0.032-0.279,0.08-0.328,0.168c-1.592,2.79-3.292,5.798-5.159,7.812
		C196.248,24.243,194.584,24.811,192.816,24.827z M236,11.269c-0.309,0.568-6.263,10.198-6.638,11.195
		c-0.119,0.314-0.134,0.555-0.012,0.729c0.313,0.447,1.004,0.188,1.44-0.136c1.29-0.946,2.182-2.088,3.174-3.088
		c0.055-0.044,0.152-0.063,0.221-0.004c0.145,0.145,0.358,0.333,0.505,0.496c0.068,0.079,0.043,0.157,0.006,0.205
		c-0.967,1.258-2.037,2.442-3.062,3.28c-1.594,1.312-3.181,1.644-3.97,0.805c-0.292-0.314-0.451-0.76-0.473-1.138
		c-0.009-0.205-0.108-0.215-0.2-0.121c-0.938,0.989-2.57,2.082-4.057,1.303c-1.242-0.652-1.529-2.224-1.295-3.551
		c0.003-0.03-0.024-0.215-0.174-0.104c-0.26,0.197-0.597,0.414-1.019,0.58c-0.517,0.206-0.76,0.281-1.237,0.275
		c-0.604-0.003-1.146-0.275-1.53-0.911c-0.212-0.342-0.301-0.864-0.322-1.245c-0.002-0.043-0.055-0.118-0.112-0.022
		c-1.014,1.646-1.959,3.237-2.964,4.909c-0.051,0.078-0.099,0.127-0.203,0.133c-0.622,0-1.301-0.002-1.986,0.002
		c-0.123,0-0.181-0.098-0.117-0.225c0.354-0.723,2.282-3.71,3.593-6.25c0.359-0.698,0.286-1.059,0.062-1.214
		c-0.28-0.191-0.837,0.098-1.308,0.479c-1.286,1.034-2.365,2.645-2.911,3.364c-0.323,0.424-0.626,1.05-1.469,2.02
		c-1.324,1.528-3.078,2.406-4.771,1.798c-0.925-0.331-1.593-1.12-1.848-2.088c-0.05-0.188-0.149-0.24-0.245-0.115
		c-0.275,0.362-0.832,0.893-1.299,1.231c-0.052,0.038-0.177,0.119-0.286,0.062c-0.099-0.047-0.445-0.567-0.513-0.717
		c-0.05-0.112-0.006-0.231,0.054-0.288c0.668-0.623,1.033-0.976,1.324-1.364c0.215-0.29,0.383-0.616,0.578-1.138
		c0.406-1.087,1.331-3.118,3.175-4.168c0.706-0.4,1.418-0.688,2.208-0.785c0.341-0.039,0.622,0.006,0.72,0.289
		c0.039,0.118,0.134,0.378,0.193,0.568c0.035,0.115,0.01,0.203-0.118,0.253c-1.088,0.44-2.179,1.121-2.935,2.194
		c-0.854,1.218-1.085,2.686-0.513,3.528c0.418,0.612,1.093,0.72,1.742,0.5c0.984-0.33,1.823-1.306,2.253-2.387
		c0.47-1.183,0.547-2.581,0.2-3.81c-0.058-0.211-0.007-0.375,0.124-0.491c0.261-0.225,0.623-0.4,0.728-0.459
		c0.224-0.135,0.491-0.037,0.618,0.16c0.359,0.567,0.554,1.362,0.572,2.188c0.022,0.174,0.092,0.178,0.172,0.088
		c0.643-0.727,1.24-1.502,1.926-2.087c0.624-0.528,1.427-0.962,2.177-0.942c0.967,0.024,1.452,0.721,1.417,1.965
		c-0.003,0.158,0.106,0.146,0.176,0.039c0.289-0.436,0.48-0.655,0.814-0.951c0.668-0.584,1.353-0.848,2.068-0.795
		c0.88,0.068,1.582,0.924,1.438,1.894c-0.093,0.625-0.411,1.178-0.954,1.462c-0.458,0.239-0.996,0.197-1.371-0.158
		c-0.307-0.302-0.407-0.728-0.326-1.16c0.017-0.088-0.092-0.171-0.182-0.072c-0.859,0.952-0.923,2.18-0.359,2.735
		c0.618,0.61,1.549,0.202,2.226-0.267c1.241-0.862,2.203-2.029,3.317-2.931c0.739-0.596,1.582-1.126,2.525-1.261
		c0.522-0.073,1.025-0.033,1.54,0.189c0.675,0.29,1.104,0.895,1.157,1.421c0.013,0.155,0.123,0.174,0.213,0.039
		c0.534-0.888,3.406-5.46,3.642-5.939c0.072-0.15,0.151-0.169,0.301-0.169c0.639,0,1.443,0,2.056,0
		C235.998,11.099,236.054,11.171,236,11.269z"/>
	<path fill="#FFFFFF" d="M212.12,0c-21.455,0-38.653,7.062-38.653,15.914c0,8.8,17.34,15.916,38.653,15.916
		c21.314,0,38.654-7.141,38.654-15.916C250.773,7.14,233.434,0,212.12,0z M212.117,30.093c-20.276,0-36.713-6.351-36.713-14.184
		c0-7.834,16.437-14.184,36.713-14.184c20.275,0,36.712,6.349,36.712,14.184C248.83,23.742,232.393,30.093,212.117,30.093z"/>
	<path fill="#FFFFFF" d="M227.973,17.217c-0.708-0.363-1.788,0.3-2.765,1.578c-0.802,1.045-1.234,2.109-1.252,3.147
		c-0.005,0.367,0.127,0.822,0.435,0.991c0.689,0.387,1.524-0.188,2.123-0.716c0.397-0.349,0.727-0.708,1.018-1.171
		c0.318-0.501,0.549-0.833,0.804-1.41c0.035-0.079,0.019-0.102-0.013-0.114c-0.09-0.034-0.18-0.105-0.191-0.18
		c-0.013-0.044-0.011-0.091,0.013-0.146C228.472,18.49,228.706,17.589,227.973,17.217z"/>
</g>
</svg>
